<?xml version="1.0" standalone="no"?>
<!DOCTYPE svg PUBLIC "-//W3C//DTD SVG 20010904//EN"
 "http://www.w3.org/TR/2001/REC-SVG-20010904/DTD/svg10.dtd">
<svg version="1.0" xmlns="http://www.w3.org/2000/svg"
 width="500.000000pt" height="500.000000pt" viewBox="0 0 500.000000 500.000000"
 preserveAspectRatio="xMidYMid meet">
<metadata>
Created by potrace 1.14, written by Peter Selinger 2001-2017
</metadata>
<g transform="translate(0.000000,500.000000) scale(0.100000,-0.100000)"
fill="#000000" stroke="none">
<path d="M2030 4971 c0 -15 5 -53 10 -82 13 -66 22 -302 11 -274 -6 14 -9 5
-14 -35 -6 -46 -3 -57 13 -75 11 -12 20 -29 20 -38 0 -17 47 -47 73 -47 8 0
30 11 50 24 23 16 38 21 45 14 15 -15 24 7 13 34 -19 51 -17 138 4 138 15 0
20 -14 30 -93 4 -27 9 -46 12 -43 4 3 12 1 19 -5 24 -20 5 79 -27 141 -23 44
-28 63 -20 77 5 10 13 27 16 38 7 18 8 18 20 -8 6 -16 16 -32 21 -35 14 -10
54 -81 54 -96 0 -7 9 -21 20 -31 13 -11 20 -31 20 -52 0 -20 4 -32 10 -28 6 3
10 24 10 46 0 28 4 39 15 39 12 0 10 10 -11 50 -16 30 -24 60 -22 74 3 14 -2
53 -9 88 -8 35 -17 78 -20 96 -3 18 -9 35 -14 38 -5 3 -9 21 -9 40 l0 34 -170
0 -170 0 0 -29z"/>
<path d="M2394 4983 c0 -10 8 -21 17 -25 11 -4 19 -23 22 -55 7 -70 30 -173
39 -173 5 0 8 -5 8 -11 0 -6 6 -25 14 -42 8 -18 16 -40 20 -49 3 -10 10 -18
16 -18 12 0 60 74 60 94 0 21 23 25 37 7 10 -14 12 -12 18 11 4 15 13 33 21
39 12 10 20 6 43 -22 l29 -34 28 21 c19 13 31 34 36 60 12 60 29 94 46 94 8 0
36 14 62 30 39 25 63 32 136 39 76 7 154 30 154 46 0 3 -133 5 -295 5 l-295 0
0 -36 c0 -41 -15 -38 -23 6 l-6 30 -95 0 c-83 0 -94 -2 -92 -17z m139 -23 c3
-11 1 -18 -4 -14 -5 3 -9 12 -9 20 0 20 7 17 13 -6z m155 -159 c3 -16 -1 -22
-10 -19 -7 3 -13 9 -13 14 0 5 -4 15 -9 22 -6 10 -3 13 10 10 11 -2 20 -13 22
-27z m-48 -51 c0 -5 -4 -10 -10 -10 -5 0 -10 5 -10 10 0 6 5 10 10 10 6 0 10
-4 10 -10z"/>
<path d="M3520 4968 c-12 -18 -47 -53 -77 -78 -30 -25 -69 -58 -87 -75 -18
-16 -50 -38 -70 -47 -20 -10 -41 -29 -46 -43 -13 -34 -35 -41 -65 -21 -36 23
-88 20 -130 -8 -20 -14 -52 -30 -72 -37 -20 -6 -46 -20 -57 -30 -11 -11 -23
-19 -28 -19 -4 0 -8 -6 -8 -14 0 -7 -16 -21 -35 -30 -25 -12 -35 -24 -35 -40
0 -26 -54 -70 -76 -62 -8 3 -17 -1 -20 -9 -4 -9 -19 -15 -39 -15 -25 0 -45
-10 -79 -41 -25 -23 -48 -50 -51 -59 -3 -10 -17 -26 -31 -35 -24 -16 -26 -15
-45 6 -26 30 -50 11 -42 -35 3 -19 1 -36 -5 -40 -17 -10 -36 24 -38 68 -1 22
-4 42 -8 44 -15 6 -26 1 -26 -13 0 -8 -8 -15 -17 -16 -11 0 -13 -3 -5 -6 6 -2
12 -11 12 -18 0 -7 6 -16 13 -18 9 -4 8 -8 -3 -16 -21 -15 -40 -13 -40 3 0 8
-10 22 -22 30 -20 14 -23 14 -40 -4 -20 -21 -24 -40 -7 -40 6 0 17 -7 25 -15
10 -9 24 -13 40 -9 18 5 29 0 43 -17 18 -22 18 -26 4 -41 -8 -10 -31 -22 -50
-29 -34 -11 -34 -11 -13 -29 18 -15 18 -19 5 -24 -9 -3 -13 -2 -10 4 3 6 2 10
-3 10 -6 0 -12 -6 -15 -13 -3 -7 -25 -19 -48 -27 -24 -7 -38 -15 -31 -17 23
-9 12 -24 -15 -21 -21 2 -36 -5 -58 -29 -16 -18 -34 -33 -38 -33 -5 0 -15 -7
-24 -15 -9 -10 -23 -13 -35 -9 -13 4 -18 2 -14 -4 3 -5 22 -13 41 -16 42 -8
46 -32 8 -46 -16 -6 -44 -19 -64 -30 -45 -24 -89 -26 -89 -4 0 14 -1 14 -16 0
-8 -9 -24 -16 -35 -16 -42 0 -116 24 -157 51 -47 32 -52 34 -52 20 0 -6 38
-40 85 -76 47 -37 85 -70 85 -75 0 -15 -130 27 -176 57 -13 8 -27 13 -31 10
-3 -4 -18 0 -34 8 -46 24 -56 16 -19 -15 19 -17 38 -30 42 -30 15 0 88 -50 88
-60 0 -7 -7 -7 -20 0 -25 14 -27 -1 -3 -36 12 -19 14 -30 6 -42 -7 -13 -6 -20
6 -30 14 -10 12 -11 -14 -7 -16 2 -35 11 -41 20 -6 8 -23 15 -38 15 -24 0 -26
-3 -28 -47 -1 -27 -1 -62 1 -80 1 -23 -4 -35 -19 -43 -20 -11 -28 -40 -10 -40
6 0 10 -9 10 -20 0 -15 -7 -20 -29 -20 -17 0 -32 -3 -35 -8 -2 -4 -31 -5 -63
-2 -47 4 -63 2 -85 -14 -16 -11 -28 -29 -28 -39 0 -15 -9 -8 -38 27 -20 25
-45 46 -55 46 -14 0 -17 5 -12 23 13 39 11 42 -35 48 -25 3 -39 7 -32 7 6 1
12 6 12 11 0 6 -15 7 -34 4 -29 -5 -34 -2 -40 20 -3 14 -3 39 0 56 5 23 2 32
-10 37 -10 4 -15 12 -12 19 3 8 -2 16 -10 19 -9 3 -12 10 -9 16 3 6 -2 13 -12
16 -10 3 -27 10 -38 16 -14 8 -20 8 -23 -1 -2 -6 -8 -9 -13 -6 -4 3 -2 -13 6
-36 18 -50 18 -49 3 -49 -8 0 -13 -14 -14 -36 0 -20 -6 -39 -13 -43 -17 -11
-28 -91 -12 -91 6 0 11 -4 11 -9 0 -5 -8 -7 -18 -4 -14 3 -20 -6 -30 -42 -6
-25 -12 -49 -12 -54 0 -8 112 -74 213 -124 20 -11 37 -23 37 -28 0 -5 5 -9 11
-9 6 0 46 -32 90 -72 63 -57 88 -88 117 -147 37 -73 40 -76 127 -126 49 -28
92 -58 95 -66 4 -8 16 -32 27 -54 30 -58 80 -232 94 -326 14 -94 8 -183 -15
-227 -70 -136 -239 -248 -409 -272 -38 -6 -78 -15 -90 -21 -11 -6 -68 -12
-126 -13 -102 -1 -108 -2 -151 -33 -25 -17 -78 -41 -119 -53 -97 -29 -115 -19
-100 54 6 29 -16 30 -29 1 -9 -19 -19 -25 -34 -23 -19 2 -24 14 -35 67 -7 36
-15 67 -18 69 -9 10 -33 -19 -38 -47 -13 -64 -99 -39 -105 30 -5 51 -17 56
-56 21 -45 -39 -97 -50 -131 -28 -25 16 -25 16 -42 -19 -9 -19 -14 -38 -10
-41 4 -4 28 -8 54 -9 27 -1 65 -9 85 -18 21 -9 42 -17 47 -17 6 0 42 -17 81
-37 69 -36 182 -137 293 -261 l37 -42 91 0 c79 0 94 -3 122 -24 32 -23 33 -23
97 -8 68 17 82 26 72 50 -3 8 3 21 13 28 15 11 23 11 48 -2 23 -12 35 -13 51
-5 40 20 231 43 353 43 84 -1 124 2 131 11 5 7 23 44 39 83 37 88 75 137 170
214 l73 60 0 -31 c0 -22 -9 -40 -31 -60 -17 -16 -35 -29 -40 -29 -4 0 -5 -8
-2 -17 5 -12 2 -15 -9 -10 -21 8 -30 -3 -17 -20 8 -9 8 -17 0 -26 -18 -22 -1
-27 20 -6 20 20 64 26 73 10 4 -5 2 -21 -4 -35 -6 -16 -6 -27 0 -31 6 -4 10
-18 10 -32 0 -21 -2 -24 -15 -13 -8 7 -15 26 -15 42 0 17 -6 31 -15 35 -21 8
-25 2 -29 -43 -4 -41 -18 -53 -41 -34 -12 10 -16 9 -21 -4 -3 -9 -13 -16 -21
-16 -7 0 -20 -15 -28 -32 -17 -42 0 -55 50 -37 35 13 44 11 50 -13 11 -45 21
-61 54 -77 69 -36 291 -286 291 -329 0 -6 7 -13 15 -16 9 -3 15 -11 14 -18 -1
-7 -1 -20 0 -28 1 -13 2 -13 11 0 7 11 10 11 10 2 0 -7 4 -18 10 -25 23 -28
79 -119 85 -138 4 -12 20 -43 36 -68 16 -25 38 -64 50 -86 11 -22 18 -30 16
-17 -4 15 0 22 10 22 20 0 52 -40 53 -67 0 -12 5 -25 10 -28 15 -9 12 -101 -5
-141 -8 -20 -23 -38 -34 -41 -11 -3 -17 -11 -14 -19 3 -8 -9 -21 -28 -33 -23
-14 -29 -22 -18 -25 8 -3 40 -15 73 -27 l58 -21 44 43 c24 24 47 52 50 63 6
19 7 19 20 1 21 -29 17 -43 -11 -37 -22 4 -25 1 -25 -26 0 -21 -6 -31 -20 -35
-11 -3 -20 -12 -20 -21 0 -9 -5 -16 -12 -16 -6 0 -19 -6 -27 -13 -9 -8 -48
-24 -87 -36 -39 -12 -97 -37 -129 -57 -60 -35 -235 -163 -235 -170 0 -2 266
-4 590 -4 l590 0 0 24 c0 13 -6 26 -12 29 -17 5 -15 150 1 155 28 9 0 82 -31
82 -6 0 -8 -3 -5 -7 9 -9 -12 -33 -29 -33 -22 0 -17 41 6 47 13 4 20 14 20 30
0 16 7 27 20 30 14 4 20 14 20 33 0 45 10 60 39 60 37 0 119 27 136 44 8 8 15
22 15 31 0 15 14 16 133 12 72 -2 146 -8 164 -13 39 -11 66 -45 82 -105 7 -26
18 -46 25 -45 13 2 126 86 126 94 0 3 -5 1 -12 -6 -17 -17 -74 -15 -103 4 -14
9 -23 19 -21 23 2 3 -15 19 -39 35 -35 24 -44 37 -49 69 -4 26 -2 45 6 55 7 8
12 17 11 18 -1 2 0 12 4 21 21 60 34 83 46 83 25 0 155 157 171 207 3 11 18
30 31 43 22 21 27 22 40 9 7 -8 16 -26 19 -41 8 -47 35 -78 70 -79 17 -1 34
-1 39 0 4 0 7 -5 7 -13 0 -17 12 -15 62 7 39 17 55 48 43 85 -4 15 4 31 33 59
34 33 37 40 25 52 -13 12 -11 16 16 33 17 11 31 26 31 34 0 20 18 17 23 -4 4
-13 5 -12 6 4 0 12 -5 24 -13 27 -9 4 -15 27 -18 66 -3 42 -11 70 -26 91 -12
16 -22 41 -22 55 0 18 -5 25 -20 25 -16 0 -20 7 -21 38 -1 20 -3 29 -6 20 -5
-21 -19 -24 -26 -5 -3 10 -9 10 -26 0 -27 -17 -41 -16 -41 1 0 8 -8 17 -17 19
-17 4 -17 5 0 6 10 1 17 9 17 20 0 23 -22 40 -28 23 -5 -16 -32 -15 -32 1 0 8
-4 7 -10 -3 -6 -10 -10 -11 -10 -2 0 6 -6 12 -14 12 -8 0 -29 18 -46 40 -17
22 -36 40 -42 40 -6 0 -27 14 -47 30 -20 17 -42 35 -49 41 -19 16 -78 23 -86
10 -4 -6 8 -25 26 -43 69 -68 92 -143 53 -172 -30 -23 -76 -20 -82 4 -9 35
-39 33 -94 -6 -43 -32 -60 -38 -99 -37 -63 1 -99 26 -100 71 0 17 -4 32 -10
32 -5 0 -10 6 -10 13 0 7 -14 20 -32 28 -48 21 -56 42 -34 84 16 30 18 40 8
74 -7 21 -12 49 -12 63 0 13 -8 33 -18 44 -10 10 -25 44 -34 75 -14 50 -14 62
0 117 8 35 20 62 27 62 7 0 15 12 18 28 10 51 13 61 20 68 4 4 7 17 7 30 0 12
7 24 15 28 8 3 15 12 15 21 0 14 11 19 38 16 7 -1 12 10 12 26 0 15 9 39 19
53 18 23 24 24 112 22 62 -1 95 -6 101 -14 11 -18 10 -58 -2 -58 -5 0 -10 -9
-10 -20 0 -12 -10 -42 -23 -68 -13 -28 -21 -60 -19 -79 3 -28 7 -32 35 -35 25
-2 35 -10 46 -35 8 -18 21 -33 28 -33 7 0 13 -11 13 -24 0 -17 13 -34 42 -55
71 -52 265 -120 347 -121 28 0 32 2 21 15 -6 8 -9 18 -6 23 3 6 -6 13 -21 17
-22 5 -25 8 -12 15 8 5 28 11 44 14 15 3 33 10 39 16 10 10 -3 11 -113 14 -43
1 -53 23 -14 31 15 3 53 18 83 32 65 31 109 62 181 128 9 8 30 15 48 15 35 0
104 31 84 37 -7 3 -13 15 -13 27 0 30 -39 139 -53 148 -7 4 -8 8 -2 8 5 0 -5
13 -23 30 -18 17 -37 30 -43 30 -13 0 -11 13 5 36 10 13 11 23 4 31 -6 7 -8
20 -4 28 4 11 -4 20 -25 29 -22 9 -35 24 -44 50 -12 35 -12 37 4 22 10 -9 22
-16 28 -16 14 0 23 24 15 36 -15 21 -61 42 -81 37 -16 -4 -21 -1 -21 15 0 12
8 26 18 31 9 6 12 11 6 11 -6 0 -26 14 -44 30 -18 17 -39 30 -46 30 -19 0 -62
-43 -57 -57 6 -18 -63 -17 -70 0 -7 18 -87 20 -94 1 -3 -7 -14 -14 -24 -14
-10 0 -19 -4 -19 -9 0 -4 -11 -6 -25 -3 -16 3 -25 11 -25 23 0 11 -4 19 -10
19 -5 0 -10 9 -10 20 0 20 -35 29 -42 11 -1 -5 -24 -7 -50 -4 -36 4 -48 10
-48 22 0 20 -53 74 -63 64 -4 -3 -7 -12 -7 -20 0 -8 -13 -27 -30 -43 -16 -16
-30 -32 -30 -36 0 -3 -11 -15 -25 -26 -14 -11 -25 -28 -25 -39 0 -17 -7 -19
-64 -19 -42 0 -66 -4 -69 -12 -4 -10 -6 -10 -6 0 -1 6 -14 12 -30 12 -22 0
-30 6 -35 25 -4 14 -13 25 -21 25 -10 0 -15 10 -15 30 0 17 -4 30 -10 30 -5 0
-10 7 -10 15 0 8 -7 15 -15 15 -8 0 -15 7 -15 15 0 8 5 15 11 15 5 0 7 5 4 11
-4 6 -19 7 -37 4 -27 -6 -90 15 -108 36 -3 3 -27 12 -54 19 -39 11 -51 19 -60
42 -6 15 -14 28 -18 28 -4 0 -8 10 -9 23 0 14 -2 17 -6 7 -10 -25 -41 -50 -57
-44 -8 3 -17 16 -20 30 -5 17 -13 24 -31 24 -18 0 -25 5 -25 20 0 11 -7 20
-15 20 -8 0 -15 7 -15 15 0 8 -9 15 -20 15 -11 0 -20 -5 -20 -12 0 -9 -3 -8
-12 1 -10 11 -10 14 0 18 6 3 12 15 12 28 0 13 5 27 10 30 15 10 12 35 -5 35
-8 0 -15 5 -15 10 0 6 8 10 18 10 21 0 76 -53 65 -63 -3 -4 1 -7 9 -7 17 0 31
33 28 68 -1 18 4 22 29 22 17 0 31 5 31 11 0 6 16 9 38 7 25 -2 37 -8 37 -18
0 -9 12 -16 30 -18 17 -2 35 -8 42 -13 7 -7 14 -6 18 1 7 11 54 13 72 2 6 -4
14 -24 18 -45 8 -39 25 -51 25 -16 0 11 4 17 10 14 6 -4 6 3 0 21 -6 15 -9 29
-7 31 5 5 37 -61 37 -76 0 -6 7 -11 15 -11 8 0 15 -7 15 -15 0 -8 5 -15 10
-15 6 0 10 5 10 11 0 6 7 17 15 26 9 9 13 23 10 34 -10 29 14 23 25 -7 8 -21
13 -24 25 -14 7 6 15 24 17 38 3 27 4 26 22 -10 19 -40 32 -50 24 -20 -3 10 2
24 10 32 12 11 12 15 3 18 -8 3 -17 -2 -22 -9 -7 -11 -9 -10 -9 4 0 25 27 32
49 13 22 -20 26 -15 35 37 4 21 13 37 20 37 8 0 17 8 21 18 6 16 7 16 20 -1
12 -16 13 -16 19 8 7 26 26 35 26 12 0 -7 5 -18 12 -25 9 -9 14 -6 22 11 16
30 51 37 43 8 -3 -14 0 -21 9 -21 8 0 15 -10 16 -22 2 -37 3 -42 12 -57 5 -8
4 -16 -5 -22 -16 -10 -12 -14 22 -22 24 -6 25 -4 21 23 -2 17 0 30 5 30 14 0
3 51 -13 68 -16 15 -8 42 12 42 8 0 14 8 14 18 1 10 7 3 15 -15 8 -18 16 -33
19 -33 9 0 -14 65 -24 68 -15 5 -12 22 3 19 7 -1 13 11 15 31 2 17 7 32 11 32
8 0 15 50 13 98 -1 53 -45 107 -54 67 -5 -26 -47 47 -57 99 -6 31 -18 57 -35
73 -14 13 -26 20 -27 16 -1 -4 0 -38 0 -75 2 -69 -11 -93 -33 -63 -11 15 -13
103 -4 180 1 11 -1 30 -6 43 -4 14 -3 22 3 22 6 0 11 -6 11 -13 0 -7 9 -18 20
-25 12 -7 18 -17 15 -22 -3 -6 -2 -10 3 -10 5 0 12 19 16 41 5 33 3 44 -11 54
-10 7 -22 11 -26 8 -5 -3 -6 4 -2 15 3 12 0 36 -9 54 -8 18 -18 44 -21 57 -4
13 -10 20 -14 15 -3 -5 -14 -10 -23 -12 -15 -2 -18 5 -18 50 l0 53 40 -44 c22
-24 40 -51 40 -59 0 -30 19 3 24 41 5 38 0 42 -46 39 -9 -1 -20 7 -23 18 -4
11 -11 18 -16 15 -5 -4 -9 1 -9 9 0 9 -4 16 -9 16 -5 0 -11 9 -14 21 -7 25
-27 16 -27 -11 0 -15 -6 -19 -24 -18 -25 2 -26 15 -11 91 4 22 -1 22 -32 -3
-32 -25 -38 -20 -24 21 10 28 9 30 -6 18 -15 -13 -16 -11 -9 16 5 21 4 26 -3
15 -6 -8 -13 -11 -17 -7 -4 3 -2 13 4 20 9 10 8 17 -1 26 -9 9 -9 14 3 21 8 5
18 6 22 4 4 -3 8 0 8 6 0 6 -7 13 -15 16 -27 11 -16 20 28 23 41 2 80 21 44
21 -9 0 -17 5 -17 10 0 6 -6 10 -12 9 -47 -6 -76 2 -83 24 -6 19 -8 19 -12 4
-2 -9 -9 -15 -14 -12 -5 4 -9 1 -9 -4 0 -6 -11 -11 -24 -11 -13 0 -26 -5 -28
-11 -3 -9 -14 -8 -41 2 -35 12 -36 14 -19 32 17 19 16 20 -32 15 -46 -6 -101
-35 -101 -55 0 -13 -31 -43 -38 -36 -3 3 -4 18 -1 33 6 28 -16 56 -24 32 -2
-7 -13 -10 -27 -6 -14 4 -36 -1 -54 -12 -32 -19 -47 -15 -38 9 10 25 79 51
132 49 47 -1 114 14 125 30 3 4 47 8 98 10 90 3 93 4 98 28 15 73 28 104 63
140 40 42 76 54 67 23 -2 -10 -10 -53 -17 -96 -10 -64 -16 -81 -35 -94 -13 -8
-24 -18 -24 -22 0 -4 28 -13 63 -20 34 -7 75 -18 90 -23 17 -7 32 -7 35 -2 4
5 21 11 37 12 17 2 31 7 33 12 3 7 127 3 172 -6 25 -6 24 -6 -8 -20 -48 -20
-35 -38 29 -41 61 -3 191 -41 184 -54 -8 -12 -48 -7 -63 8 -7 7 -18 13 -23 13
-16 0 8 -35 36 -54 14 -9 25 -24 25 -34 0 -25 20 -42 48 -42 37 0 62 -18 62
-46 0 -17 8 -27 24 -34 13 -5 26 -14 28 -21 2 -6 15 -13 28 -14 38 -4 40 -4
38 -12 -5 -27 38 -84 58 -76 8 3 14 1 14 -4 0 -6 9 -14 19 -19 24 -12 87 -63
145 -120 58 -56 67 -56 25 -1 -40 52 -76 84 -129 117 -42 25 -42 25 -15 30 26
5 27 6 9 21 -11 9 -36 26 -57 37 -21 11 -44 27 -50 36 -7 9 -32 26 -57 38 -32
17 -50 35 -66 68 -13 25 -20 47 -17 50 6 7 53 -48 53 -63 0 -18 70 -62 100
-63 18 0 44 -18 82 -56 85 -86 85 -86 271 -103 92 -8 172 -15 177 -15 6 0 10
43 10 105 l0 105 -31 0 c-17 0 -37 7 -45 15 -8 8 -21 12 -28 9 -13 -5 -26 15
-106 161 -9 17 -25 54 -36 83 -36 102 -105 149 -288 197 -55 15 -116 35 -135
45 -20 10 -71 25 -113 35 -75 16 -79 16 -110 -3 -29 -17 -49 -19 -153 -16
-139 3 -245 13 -245 22 0 16 40 67 62 78 20 11 5 13 -103 14 l-126 0 -23 -32z
m650 -338 c26 -16 3 -22 -27 -6 -23 13 -24 15 -8 15 11 1 27 -3 35 -9z m-80
-30 c0 -5 -2 -10 -4 -10 -3 0 -8 5 -11 10 -3 6 -1 10 4 10 6 0 11 -4 11 -10z
m-1040 -16 c0 -8 -4 -12 -10 -9 -5 3 -10 10 -10 16 0 5 5 9 10 9 6 0 10 -7 10
-16z m-40 -18 c0 -3 -4 -8 -10 -11 -5 -3 -10 -1 -10 4 0 6 5 11 10 11 6 0 10
-2 10 -4z m430 -227 c0 -6 -9 -13 -21 -17 -11 -5 -20 -12 -19 -17 1 -5 -4 -11
-11 -14 -6 -2 -9 1 -5 7 3 6 0 12 -6 15 -22 7 20 46 43 40 10 -3 19 -9 19 -14z
m277 -611 c-2 -7 7 -42 20 -78 13 -36 22 -78 21 -95 l-4 -30 -7 30 c-4 17 -16
58 -27 92 -11 35 -17 70 -14 78 7 18 18 20 11 3z m210 -140 c-3 -7 -5 -2 -5
12 0 14 2 19 5 13 2 -7 2 -19 0 -25z m-2827 -163 c0 -8 -4 -15 -10 -15 -5 0
-10 7 -10 15 0 8 5 15 10 15 6 0 10 -7 10 -15z m-11 -67 c1 -5 -3 -8 -9 -8 -5
0 -10 12 -9 28 0 24 1 25 9 7 5 -11 9 -23 9 -27z m2147 -39 c19 -22 19 -22 -3
-8 -13 8 -23 17 -23 21 0 12 6 9 26 -13z m44 1 c0 -5 -2 -10 -4 -10 -3 0 -8 5
-11 10 -3 6 -1 10 4 10 6 0 11 -4 11 -10z m-420 -144 c0 -8 -7 -16 -15 -20
-10 -4 -15 1 -15 14 0 11 7 20 15 20 8 0 15 -6 15 -14z m130 -78 c0 -18 -2
-20 -9 -8 -6 8 -7 18 -5 22 9 14 14 9 14 -14z m-686 -203 c4 -21 2 -42 -6 -55
-15 -23 -22 -25 -37 -7 -8 10 -6 19 9 35 22 23 26 42 10 42 -5 0 -10 5 -10 10
0 6 6 10 14 10 8 0 17 -15 20 -35z m1496 -70 c0 -8 -4 -15 -10 -15 -5 0 -10 7
-10 15 0 8 5 15 10 15 6 0 10 -7 10 -15z m-1546 -100 c-4 -8 -8 -15 -10 -15
-2 0 -4 7 -4 15 0 8 4 15 10 15 5 0 7 -7 4 -15z m36 -31 c0 -8 -4 -12 -10 -9
-5 3 -10 10 -10 16 0 5 5 9 10 9 6 0 10 -7 10 -16z m-30 -23 c0 -6 -4 -13 -10
-16 -5 -3 -10 1 -10 9 0 9 5 16 10 16 6 0 10 -4 10 -9z m87 -34 c7 -5 11 -13
7 -18 -9 -16 -34 10 -33 35 0 14 2 16 6 6 3 -8 12 -19 20 -23z m43 -31 c0 -3
-4 -8 -10 -11 -5 -3 -10 -1 -10 4 0 6 5 11 10 11 6 0 10 -2 10 -4z m-95 -115
c3 -5 1 -12 -5 -16 -5 -3 -10 1 -10 9 0 18 6 21 15 7z m-392 -32 c19 -34 17
-44 -13 -52 -18 -5 -20 0 -20 39 0 52 9 55 33 13z m285 -32 c15 -3 30 -1 33 5
4 7 9 6 14 -1 3 -7 15 -9 25 -6 16 5 20 -1 26 -42 3 -26 11 -54 16 -60 7 -9 7
-13 -2 -13 -7 0 -10 -7 -6 -16 4 -10 -3 -26 -19 -42 -27 -27 -32 -42 -14 -42
8 0 8 -5 -1 -15 -7 -8 -12 -41 -11 -75 0 -37 -4 -60 -10 -60 -8 0 -8 -4 -2
-12 5 -7 10 -53 12 -102 1 -71 5 -92 19 -102 9 -7 13 -16 9 -20 -4 -5 -12 -2
-17 6 -19 30 -9 2 16 -45 14 -26 23 -54 20 -61 -3 -7 -1 -16 5 -20 5 -3 7 -15
3 -26 -6 -20 7 -57 32 -88 16 -20 23 -90 9 -90 -5 0 -2 -7 7 -14 15 -11 17
-30 17 -116 -1 -76 2 -105 12 -111 11 -7 10 -9 -3 -9 -10 0 -24 12 -32 28 -13
26 -52 151 -62 202 -3 13 -12 38 -19 55 -8 16 -23 55 -34 85 -11 30 -38 100
-61 155 -26 63 -45 128 -52 180 -14 103 -5 444 12 455 6 4 12 11 12 16 0 5 3
16 6 24 6 13 7 13 10 -1 2 -9 15 -19 30 -22z m2112 -57 c0 -5 -10 -10 -22 -9
-22 0 -22 1 -3 9 11 5 21 9 23 9 1 1 2 -3 2 -9z m-2280 -108 c38 -46 39 -47
23 -61 -12 -11 -14 -11 -12 0 4 20 -20 61 -32 54 -5 -4 -9 1 -9 9 0 21 12 20
30 -2z m2270 -23 c0 -11 -4 -17 -10 -14 -5 3 -10 13 -10 21 0 8 5 14 10 14 6
0 10 -9 10 -21z m-2278 -22 c5 -10 3 -27 -2 -38 -8 -14 -6 -42 5 -100 19 -100
19 -99 -2 -70 -9 13 -19 40 -23 60 -4 20 -8 41 -10 46 -1 6 -2 36 -1 68 1 40
5 56 14 55 6 -2 15 -11 19 -21z m1028 -120 c0 -20 0 -20 -14 -2 -8 11 -12 23
-9 28 8 13 23 -3 23 -26z m1315 -27 c-3 -5 -13 -10 -21 -10 -8 0 -14 -4 -14
-9 0 -5 -10 -6 -22 -3 -22 5 -21 6 7 18 37 16 58 17 50 4z m-1225 -54 c0 -3
-4 -8 -10 -11 -5 -3 -10 -1 -10 4 0 6 5 11 10 11 6 0 10 -2 10 -4z m-30 -26
c0 -5 -5 -10 -11 -10 -5 0 -7 5 -4 10 3 6 8 10 11 10 2 0 4 -4 4 -10z m1190
-46 c0 -8 -4 -12 -10 -9 -5 3 -10 10 -10 16 0 5 5 9 10 9 6 0 10 -7 10 -16z
m-1087 -184 c18 -25 23 -41 16 -45 -5 -4 -8 -13 -6 -20 3 -6 -1 -45 -9 -86
-15 -81 -17 -168 -5 -240 11 -70 -30 -182 -60 -163 -4 2 -9 -3 -13 -11 -9 -25
-37 -17 -75 23 -38 40 -67 57 -90 53 -9 -2 -12 4 -8 18 3 14 0 21 -9 21 -15 0
-30 43 -20 59 4 6 -9 13 -28 17 -31 5 -36 11 -42 41 -5 28 -12 35 -36 40 -25
5 -29 10 -25 29 3 18 0 24 -14 24 -11 0 -19 -4 -19 -10 0 -5 -9 -10 -20 -10
-12 0 -20 7 -20 17 0 20 -38 63 -57 63 -7 0 -13 7 -13 15 0 8 -4 15 -10 15 -5
0 -10 9 -10 19 0 11 -5 21 -10 23 -15 5 0 68 15 68 8 0 15 -6 18 -12 3 -10 9
-10 30 1 16 8 40 12 62 8 19 -3 33 -2 30 3 -3 5 11 4 31 -1 20 -6 42 -8 50 -5
7 3 18 -3 24 -12 6 -11 12 -13 17 -6 14 19 41 24 39 6 -1 -22 43 -22 68 1 18
15 37 22 59 18 4 0 7 8 7 19 0 14 5 18 16 13 10 -3 22 0 28 8 11 14 46 37 56
38 3 0 17 -17 33 -39z m-1200 -27 c-7 -2 -21 -2 -30 0 -10 3 -4 5 12 5 17 0
24 -2 18 -5z m2092 -266 c14 -20 25 -41 25 -46 0 -6 4 -11 9 -11 11 0 26 -39
22 -58 -1 -8 5 -24 13 -37 20 -31 20 -73 1 -113 -21 -41 -75 -60 -200 -66
-116 -7 -173 -15 -181 -27 -7 -12 -98 -11 -126 2 -30 13 -58 82 -58 142 0 35
4 47 15 47 8 0 15 6 15 13 0 27 19 41 52 39 23 -2 41 5 59 22 15 13 37 26 50
28 13 1 30 11 37 21 11 14 26 18 70 16 63 -3 89 7 117 45 25 33 50 28 80 -17z
m-1877 -94 c-6 -7 -7 -13 -2 -13 14 0 34 -50 34 -83 0 -34 -19 -32 -37 4 -6
13 -19 41 -29 61 -14 30 -15 39 -5 52 10 12 17 13 31 3 14 -8 16 -15 8 -24z
m172 -153 c0 -5 -2 -10 -4 -10 -3 0 -8 5 -11 10 -3 6 -1 10 4 10 6 0 11 -4 11
-10z m1530 -339 c0 -15 -42 -41 -53 -34 -5 3 1 14 14 24 27 21 39 24 39 10z
m-1310 -60 c0 -5 10 -13 21 -16 29 -10 83 -72 89 -104 4 -19 15 -29 40 -37 45
-15 82 -79 86 -148 1 -28 0 -54 -2 -58 -3 -4 -22 2 -43 13 -27 14 -38 25 -35
37 3 10 -11 35 -36 62 -49 55 -180 224 -180 233 0 3 7 4 15 1 8 -4 17 1 21 10
7 17 24 22 24 7z"/>
<path d="M3700 1290 c0 -5 5 -10 11 -10 5 0 7 -4 4 -10 -3 -5 3 -10 14 -10 25
0 26 4 5 24 -18 18 -34 21 -34 6z"/>
<path d="M3720 1236 c0 -8 5 -18 10 -21 6 -3 10 3 10 14 0 12 -4 21 -10 21 -5
0 -10 -6 -10 -14z"/>
<path d="M3947 4985 c24 -10 47 -12 83 -6 81 13 70 21 -26 21 -85 -1 -88 -1
-57 -15z"/>
<path d="M4720 4992 c0 -12 186 -192 199 -192 25 0 8 36 -45 97 -62 70 -154
127 -154 95z"/>
<path d="M2442 4670 c0 -14 2 -19 5 -12 2 6 2 18 0 25 -3 6 -5 1 -5 -13z"/>
<path d="M3485 4640 c3 -5 11 -10 16 -10 6 0 7 5 4 10 -3 6 -11 10 -16 10 -6
0 -7 -4 -4 -10z"/>
<path d="M2345 4538 c-10 -26 -2 -43 12 -26 7 8 8 19 3 28 -8 12 -10 12 -15
-2z"/>
<path d="M2645 4500 c-3 -5 -1 -10 4 -10 6 0 11 5 11 10 0 6 -2 10 -4 10 -3 0
-8 -4 -11 -10z"/>
<path d="M3846 4269 c5 -8 10 -23 11 -33 6 -35 15 -32 11 3 -2 19 -9 37 -17
39 -10 3 -11 0 -5 -9z"/>
<path d="M3851 4108 c1 -24 3 -27 6 -10 3 14 9 20 16 15 7 -4 6 1 -2 10 -19
24 -21 22 -20 -15z"/>
<path d="M3882 4040 c25 -34 38 -39 31 -11 -2 10 -16 24 -29 30 l-24 11 22
-30z"/>
<path d="M3967 4008 c-7 -23 -1 -38 14 -38 12 0 12 47 0 54 -5 3 -11 -4 -14
-16z"/>
<path d="M3880 3896 c0 -8 5 -18 11 -21 6 -4 14 -17 19 -29 8 -20 9 -19 9 6 1
14 -2 33 -5 42 -8 20 -34 21 -34 2z"/>
<path d="M335 3795 c-31 -30 -31 -52 0 -94 23 -32 23 -35 9 -70 -25 -62 -47
-82 -114 -108 -53 -20 -77 -23 -133 -19 -88 6 -97 2 -97 -43 l0 -37 157 -11
c87 -6 177 -12 200 -12 23 -1 88 -11 145 -21 131 -25 147 -25 182 6 22 19 29
36 33 73 2 33 -1 53 -10 63 -7 7 -12 18 -10 25 2 6 -1 14 -6 18 -13 8 -14 47
-2 61 4 5 11 21 15 36 5 21 0 31 -28 54 -18 16 -32 33 -30 39 6 15 -44 65 -66
65 -11 0 -20 -6 -20 -14 0 -8 -13 -19 -30 -25 -16 -5 -30 -6 -30 -2 0 15 -67
41 -104 41 -26 0 -44 -7 -61 -25z"/>
<path d="M4006 3780 c3 -14 10 -29 15 -34 14 -16 10 6 -7 34 l-15 25 7 -25z"/>
<path d="M4880 3749 c0 -5 -6 -7 -12 -3 -7 4 -10 4 -6 0 3 -4 10 -8 15 -8 4 0
14 -5 22 -11 12 -10 12 -9 2 11 -13 24 -21 28 -21 11z"/>
<path d="M4885 3690 c4 -14 13 -34 19 -45 19 -30 36 -85 27 -85 -4 0 -15 16
-25 36 -9 20 -19 34 -22 31 -4 -3 6 -31 20 -63 29 -63 32 -78 11 -50 -8 11
-15 14 -15 8 0 -17 37 -89 50 -97 16 -10 12 -38 -5 -31 -19 7 -19 -4 0 -31 13
-19 13 -22 0 -27 -8 -3 -15 -15 -15 -27 0 -19 -2 -20 -16 -8 -14 12 -16 9 -13
-21 2 -24 -1 -34 -9 -32 -13 2 -17 -20 -5 -32 4 -4 8 -19 10 -34 3 -25 2 -26
-11 -9 -14 18 -14 18 -21 -2 -3 -12 -3 -25 0 -31 3 -5 3 -10 -2 -10 -14 0 -34
-56 -39 -107 -2 -26 -7 -58 -9 -70 -3 -13 -1 -23 5 -23 5 0 10 5 10 12 0 27
11 -4 25 -68 14 -63 30 -168 41 -269 9 -78 12 -87 35 -75 14 8 18 17 14 31 -4
11 -1 26 5 34 7 9 10 30 6 52 -9 60 -17 203 -12 203 3 0 17 -17 31 -37 l25
-38 0 388 c0 285 -3 386 -11 385 -7 -2 -23 24 -36 57 -14 33 -36 71 -50 85
l-25 25 7 -25z"/>
<path d="M4021 3634 c0 -11 3 -14 6 -6 3 7 2 16 -1 19 -3 4 -6 -2 -5 -13z"/>
<path d="M3837 3333 c-11 -10 -8 -43 3 -43 6 0 10 11 10 25 0 26 -2 29 -13 18z"/>
<path d="M0 2985 c0 -98 2 -176 4 -174 2 2 21 33 41 68 l38 64 -34 31 c-29 26
-33 35 -30 70 5 76 4 97 -8 109 -8 8 -11 -34 -11 -168z"/>
<path d="M187 3153 c-3 -4 1 -35 7 -68 11 -55 15 -61 47 -72 19 -6 58 -9 89
-6 62 6 197 -25 238 -54 14 -10 32 -22 41 -28 9 -5 32 -26 51 -46 48 -49 88
-63 160 -56 l59 7 3 -43 c3 -38 6 -42 31 -45 66 -8 177 55 177 100 0 9 -30 40
-67 69 -104 82 -103 81 -118 172 -9 58 -35 70 -113 52 -72 -17 -112 -36 -164
-78 -44 -35 -68 -31 -68 13 0 40 -20 47 -180 65 -69 8 -139 17 -157 20 -17 3
-33 2 -36 -2z"/>
<path d="M3000 3150 c0 -5 9 -10 21 -10 11 0 17 5 14 10 -3 6 -13 10 -21 10
-8 0 -14 -4 -14 -10z"/>
<path d="M3350 3150 c0 -5 9 -10 20 -10 11 0 20 5 20 10 0 6 -9 10 -20 10 -11
0 -20 -4 -20 -10z"/>
<path d="M3420 3116 c0 -10 9 -16 21 -16 24 0 21 23 -4 28 -10 2 -17 -3 -17
-12z"/>
<path d="M3678 2803 c7 -3 16 -2 19 1 4 3 -2 6 -13 5 -11 0 -14 -3 -6 -6z"/>
<path d="M48 2755 l-46 -34 0 -163 c-1 -90 1 -170 4 -180 7 -24 92 -65 160
-77 73 -13 126 -2 164 34 23 22 29 37 32 88 8 97 -2 109 -92 121 -66 10 -78
19 -56 48 9 13 26 38 37 56 24 37 57 42 83 13 24 -27 100 -61 133 -61 31 0 93
34 93 51 0 22 -22 49 -52 65 -31 16 -72 16 -154 -2 -24 -4 -37 -1 -51 13 -26
26 -127 63 -172 63 -28 0 -50 -9 -83 -35z"/>
<path d="M4942 2495 c-10 -20 -5 -55 9 -55 13 0 23 50 11 62 -7 7 -13 4 -20
-7z"/>
<path d="M4977 2393 c-4 -3 -7 -17 -7 -30 0 -12 -3 -23 -7 -23 -5 0 -9 -46
-10 -101 -1 -56 -7 -145 -13 -198 -10 -98 -22 -242 -24 -296 -1 -28 1 -30 42
-33 l42 -3 0 345 c0 190 -4 346 -8 346 -5 0 -12 -3 -15 -7z"/>
<path d="M32 1848 c-20 -20 -14 -28 23 -28 19 0 35 4 35 8 0 12 -22 32 -35 32
-6 0 -16 -5 -23 -12z"/>
<path d="M1513 1463 c-18 -6 -16 -33 1 -33 19 0 31 19 20 30 -5 4 -15 5 -21 3z"/>
<path d="M1830 1460 c0 -5 5 -10 10 -10 6 0 10 5 10 10 0 6 -4 10 -10 10 -5 0
-10 -4 -10 -10z"/>
<path d="M1200 1267 c0 -11 1 -18 3 -16 1 2 8 11 15 20 9 13 9 16 -3 16 -8 0
-15 -9 -15 -20z"/>
<path d="M1304 1199 c-66 -19 -38 -68 28 -51 26 6 33 14 33 32 0 28 -15 33
-61 19z"/>
<path d="M1640 1132 c0 -12 19 -26 26 -19 2 2 -2 10 -11 17 -9 8 -15 8 -15 2z"/>
<path d="M1662 1045 c-1 -37 2 -44 21 -49 17 -4 19 -8 9 -18 -10 -10 -19 -10
-44 5 -17 10 -32 16 -35 14 -6 -6 24 -58 33 -58 5 1 9 -4 9 -11 0 -6 6 -13 13
-15 6 -3 12 2 12 11 0 12 10 16 36 16 31 0 35 3 30 20 -3 11 -8 29 -11 39 -3
11 -17 26 -30 35 -14 9 -25 23 -25 31 0 7 -4 16 -8 19 -4 2 -9 -15 -10 -39z"/>
<path d="M2330 960 c0 -5 5 -10 11 -10 5 0 7 5 4 10 -3 6 -8 10 -11 10 -2 0
-4 -4 -4 -10z"/>
<path d="M1285 951 c-3 -5 -1 -12 5 -16 5 -3 10 1 10 9 0 18 -6 21 -15 7z"/>
<path d="M4547 853 c-14 -13 -6 -23 18 -23 28 0 34 15 9 24 -19 7 -19 7 -27
-1z"/>
<path d="M1304 679 c-3 -6 -2 -15 2 -19 12 -12 38 5 30 19 -9 14 -23 14 -32 0z"/>
<path d="M1012 643 c4 -21 33 -25 33 -3 0 8 -8 16 -18 18 -14 3 -18 -1 -15
-15z"/>
<path d="M2190 576 c0 -8 114 -85 119 -80 10 10 -74 84 -96 84 -13 0 -23 -2
-23 -4z"/>
<path d="M4597 529 c-15 -17 -21 -19 -34 -7 -12 10 -17 10 -20 1 -2 -7 -18
-28 -34 -49 -16 -20 -29 -42 -29 -48 0 -6 -18 -38 -39 -70 -41 -61 -43 -76
-11 -76 10 0 58 -15 107 -34 161 -62 260 -113 311 -160 27 -25 53 -46 58 -46
5 0 17 -9 27 -20 9 -11 28 -20 42 -20 24 0 25 3 25 58 l0 57 -75 45 c-42 25
-103 62 -138 82 -34 21 -66 38 -72 38 -5 0 -41 16 -80 35 -54 27 -76 34 -102
29 -18 -3 -33 -4 -33 0 0 9 87 46 110 46 25 0 42 37 28 63 -6 13 -5 17 7 17
29 0 3 79 -25 80 -3 0 -14 -9 -23 -21z"/>
<path d="M2511 527 c-6 -6 -11 -18 -11 -27 0 -9 -9 -25 -20 -35 -20 -18 -21
-18 -39 2 -11 11 -21 31 -24 44 -3 16 -5 12 -6 -14 -1 -46 -16 -77 -36 -77
-16 0 -18 -9 -9 -34 16 -41 124 1 143 55 6 17 20 33 31 36 25 7 25 9 1 38 -13
18 -21 21 -30 12z"/>
<path d="M4209 500 c-21 -21 -39 -43 -39 -49 0 -6 -12 -29 -26 -51 -24 -36
-25 -60 -3 -60 21 0 149 148 149 173 0 8 -9 17 -21 20 -15 4 -32 -5 -60 -33z"/>
<path d="M1080 471 c0 -6 5 -11 11 -11 8 0 9 -13 5 -40 -6 -40 -6 -40 21 -34
45 11 63 23 63 44 0 15 -7 20 -28 20 -15 0 -38 7 -50 16 -12 8 -22 10 -22 5z"/>
<path d="M4890 440 c0 -5 4 -10 9 -10 6 0 13 5 16 10 3 6 -1 10 -9 10 -9 0
-16 -4 -16 -10z"/>
<path d="M882 411 c-13 -8 -8 -53 8 -76 4 -5 10 -18 13 -28 6 -15 4 -16 -14
-6 -11 6 -23 8 -27 5 -8 -9 39 -56 57 -56 31 -1 51 -27 56 -71 5 -57 15 -89
27 -89 10 0 1 -38 -14 -57 -8 -10 -13 -9 -25 2 -8 8 -26 15 -39 15 -22 0 -23
2 -14 21 10 17 8 21 -9 26 -12 3 -21 9 -21 13 0 18 -33 19 -56 1 -22 -18 -23
-19 -5 -35 9 -9 24 -16 32 -16 30 0 42 -16 30 -39 -12 -21 -11 -21 97 -21
l109 0 36 71 c21 39 37 82 37 94 0 34 -18 75 -32 75 -7 0 -40 30 -73 66 -35
39 -78 75 -105 87 -25 12 -47 22 -50 24 -3 1 -11 -1 -18 -6z m48 -56 c0 -9 -6
-12 -15 -9 -8 4 -15 10 -15 15 0 5 7 9 15 9 8 0 15 -7 15 -15z"/>
<path d="M4270 410 c0 -5 -7 -10 -15 -10 -18 0 -38 -37 -31 -56 9 -23 43 -17
49 9 3 12 9 32 12 45 5 14 3 22 -4 22 -6 0 -11 -4 -11 -10z"/>
<path d="M1952 365 c-12 -25 -1 -42 18 -30 12 7 13 55 2 55 -5 0 -14 -11 -20
-25z"/>
<path d="M1890 355 c0 -8 7 -15 16 -15 14 0 14 3 4 15 -7 8 -14 15 -16 15 -2
0 -4 -7 -4 -15z"/>
<path d="M4037 333 c-8 -7 11 -33 24 -33 5 0 9 9 9 20 0 19 -20 27 -33 13z"/>
<path d="M0 310 c0 -22 16 -26 40 -10 13 9 13 11 0 20 -24 16 -40 12 -40 -10z"/>
<path d="M330 264 c0 -31 71 -123 119 -152 77 -48 88 -49 93 -7 6 56 -28 98
-116 140 -82 39 -96 42 -96 19z"/>
<path d="M18 253 c-10 -2 -18 -13 -18 -23 0 -17 6 -19 53 -14 60 7 62 8 54 29
-6 15 -49 19 -89 8z"/>
<path d="M3970 210 c0 -5 7 -10 16 -10 8 0 12 5 9 10 -3 6 -10 10 -16 10 -5 0
-9 -4 -9 -10z"/>
<path d="M3670 195 c0 -3 34 -27 75 -54 87 -58 102 -55 18 4 -56 39 -93 59
-93 50z"/>
<path d="M3967 151 c-3 -14 -1 -18 9 -14 8 3 14 11 14 19 0 21 -17 17 -23 -5z"/>
<path d="M3979 119 c-6 -12 -21 -31 -34 -43 -12 -12 -27 -33 -33 -48 -11 -26
-10 -28 12 -28 14 0 31 3 40 6 17 7 22 34 6 34 -5 0 -10 10 -10 22 0 20 1 21
20 3 11 -10 20 -29 20 -42 0 -22 4 -23 60 -23 49 0 60 3 60 16 0 27 -43 94
-60 94 -9 0 -25 7 -36 15 -26 19 -31 19 -45 -6z"/>
<path d="M311 102 c-24 -8 -82 -72 -76 -83 4 -5 25 -10 48 -9 23 0 74 -2 114
-6 76 -7 128 0 118 16 -15 24 -181 90 -204 82z"/>
</g>
</svg>
